<svg width="46" height="24" viewBox="0 0 46 24" fill="none" xmlns="http://www.w3.org/2000/svg">
<path d="M12.5 10C13.0523 10 13.5 9.55228 13.5 9C13.5 8.44772 13.0523 8 12.5 8C11.9477 8 11.5 8.44772 11.5 9C11.5 9.55228 11.9477 10 12.5 10Z" stroke="#6F6F6F" stroke-opacity="0.36" stroke-width="2" stroke-linecap="round" stroke-linejoin="round"/>
<path d="M19.5 10C20.0523 10 20.5 9.55228 20.5 9C20.5 8.44772 20.0523 8 19.5 8C18.9477 8 18.5 8.44772 18.5 9C18.5 9.55228 18.9477 10 19.5 10Z" stroke="#6F6F6F" stroke-opacity="0.36" stroke-width="2" stroke-linecap="round" stroke-linejoin="round"/>
<path d="M5.5 10C6.05228 10 6.5 9.55228 6.5 9C6.5 8.44772 6.05228 8 5.5 8C4.94772 8 4.5 8.44772 4.5 9C4.5 9.55228 4.94772 10 5.5 10Z" stroke="#6F6F6F" stroke-opacity="0.36" stroke-width="2" stroke-linecap="round" stroke-linejoin="round"/>
<path d="M12.5 16C13.0523 16 13.5 15.5523 13.5 15C13.5 14.4477 13.0523 14 12.5 14C11.9477 14 11.5 14.4477 11.5 15C11.5 15.5523 11.9477 16 12.5 16Z" stroke="#6F6F6F" stroke-opacity="0.36" stroke-width="2" stroke-linecap="round" stroke-linejoin="round"/>
<path d="M19.5 16C20.0523 16 20.5 15.5523 20.5 15C20.5 14.4477 20.0523 14 19.5 14C18.9477 14 18.5 14.4477 18.5 15C18.5 15.5523 18.9477 16 19.5 16Z" stroke="#6F6F6F" stroke-opacity="0.36" stroke-width="2" stroke-linecap="round" stroke-linejoin="round"/>
<path d="M5.5 16C6.05228 16 6.5 15.5523 6.5 15C6.5 14.4477 6.05228 14 5.5 14C4.94772 14 4.5 14.4477 4.5 15C4.5 15.5523 4.94772 16 5.5 16Z" stroke="#6F6F6F" stroke-opacity="0.36" stroke-width="2" stroke-linecap="round" stroke-linejoin="round"/>
<path d="M33.5 10C34.0523 10 34.5 9.55228 34.5 9C34.5 8.44772 34.0523 8 33.5 8C32.9477 8 32.5 8.44772 32.5 9C32.5 9.55228 32.9477 10 33.5 10Z" stroke="#6F6F6F" stroke-opacity="0.36" stroke-width="2" stroke-linecap="round" stroke-linejoin="round"/>
<path d="M40.5 10C41.0523 10 41.5 9.55228 41.5 9C41.5 8.44772 41.0523 8 40.5 8C39.9477 8 39.5 8.44772 39.5 9C39.5 9.55228 39.9477 10 40.5 10Z" stroke="#6F6F6F" stroke-opacity="0.36" stroke-width="2" stroke-linecap="round" stroke-linejoin="round"/>
<path d="M26.5 10C27.0523 10 27.5 9.55228 27.5 9C27.5 8.44772 27.0523 8 26.5 8C25.9477 8 25.5 8.44772 25.5 9C25.5 9.55228 25.9477 10 26.5 10Z" stroke="#6F6F6F" stroke-opacity="0.36" stroke-width="2" stroke-linecap="round" stroke-linejoin="round"/>
<path d="M33.5 16C34.0523 16 34.5 15.5523 34.5 15C34.5 14.4477 34.0523 14 33.5 14C32.9477 14 32.5 14.4477 32.5 15C32.5 15.5523 32.9477 16 33.5 16Z" stroke="#6F6F6F" stroke-opacity="0.36" stroke-width="2" stroke-linecap="round" stroke-linejoin="round"/>
<path d="M40.5 16C41.0523 16 41.5 15.5523 41.5 15C41.5 14.4477 41.0523 14 40.5 14C39.9477 14 39.5 14.4477 39.5 15C39.5 15.5523 39.9477 16 40.5 16Z" stroke="#6F6F6F" stroke-opacity="0.36" stroke-width="2" stroke-linecap="round" stroke-linejoin="round"/>
<path d="M26.5 16C27.0523 16 27.5 15.5523 27.5 15C27.5 14.4477 27.0523 14 26.5 14C25.9477 14 25.5 14.4477 25.5 15C25.5 15.5523 25.9477 16 26.5 16Z" stroke="#6F6F6F" stroke-opacity="0.36" stroke-width="2" stroke-linecap="round" stroke-linejoin="round"/>
</svg>
