<svg width="24" height="24" viewBox="0 0 24 24" fill="none" xmlns="http://www.w3.org/2000/svg">
<g clip-path="url(#clip0_44_31)">
<mask id="mask0_44_31" style="mask-type:luminance" maskUnits="userSpaceOnUse" x="0" y="0" width="24" height="24">
<path d="M24 12C24 5.37258 18.6274 0 12 0C5.37258 0 0 5.37258 0 12C0 18.6274 5.37258 24 12 24C18.6274 24 24 18.6274 24 12Z" fill="white"/>
</mask>
<g mask="url(#mask0_44_31)">
<path d="M24 0H0V24H24V0Z" fill="#49007E"/>
<path d="M-2.40444 19.8283C-1.02652 26.3109 5.34568 30.449 11.8283 29.0711C18.3109 27.6932 22.449 21.321 21.0711 14.8384C19.6932 8.35581 13.321 4.21765 6.83839 5.59557C0.355798 6.97349 -3.78236 13.3457 -2.40444 19.8283Z" fill="#FF7D10"/>
<path d="M8.79189 15.7907C8.88417 16.4473 9.32044 17.0282 10.0047 17.4054C10.689 17.7827 11.5653 17.9255 12.4407 17.8025C13.3162 17.6795 14.1191 17.3006 14.6729 16.7494C15.2267 16.1981 15.486 15.5195 15.3937 14.8629" fill="black"/>
<path d="M8.09067 13.1964C8.03943 12.8318 7.77621 12.5674 7.50276 12.6058C7.2293 12.6443 7.04916 12.971 7.1004 13.3356C7.15165 13.7002 7.41486 13.9646 7.68832 13.9262C7.96177 13.8878 8.14191 13.561 8.09067 13.1964Z" fill="black"/>
<path d="M16.0128 12.083C15.9616 11.7184 15.6984 11.454 15.4249 11.4925C15.1514 11.5309 14.9713 11.8576 15.0225 12.2222C15.0738 12.5868 15.337 12.8512 15.6105 12.8128C15.8839 12.7744 16.0641 12.4477 16.0128 12.083Z" fill="black"/>
</g>
</g>
<defs>
<clipPath id="clip0_44_31">
<rect width="24" height="24" fill="white"/>
</clipPath>
</defs>
</svg>
